<?xml version="1.0" encoding="UTF-8"?><svg xmlns="http://www.w3.org/2000/svg" viewBox="0 0 368.5 78.85"><defs><style>.d,.e,.f{stroke:#595757;}.d,.e,.g{stroke-miterlimit:10;}.d,.h{fill:#9e9e9f;}.i{fill:#e95513;}.j{fill:#006837;}.k{fill:#3e3a39;}.l,.g{fill:#595757;}.e,.f{fill:none;}.g{stroke:#4c4b4c;}</style></defs><g id="a"/><g id="b"><g id="c"><g><path class="g" d="M166.45,25.5c0-.6,.33-.9,1-.9h19.92c.71,0,1.06,.3,1.06,.9v5.18c0,.6-.35,.9-1.06,.9h-19.92c-.66,0-1-.3-1-.9v-5.18Z"/><path class="l" d="M194.7,39.37V11.92c0-4.33,.89-7.3,2.67-8.91,1.78-1.62,4.94-2.42,9.49-2.42h21.81V11.35h-20.25c-1.43,.14-2.3,.88-2.6,2.21v21.82c0,1.57,.17,2.62,.52,3.14,.49,.81,1.43,1.21,2.82,1.21h19.51v10.77h-23.44c-1.24,0-2.55-.26-3.93-.78-4.4-1.66-6.6-5.11-6.6-10.34Z"/><g><path class="l" d="M245.39,22.25h.14L262.05,.95c.23-.27,.46-.4,.7-.4h8.29c.65,0,1.09,.24,1.32,.73,.23,.49,.16,.98-.21,1.47l-17.5,21.76,18.4,23.76c.37,.49,.43,.98,.17,1.47s-.71,.73-1.36,.73h-8.36c-.19,0-.33-.02-.42-.07-.09-.04-.19-.11-.28-.2l-.14-.13-17.15-23.29h-.14v22.69c0,.67-.35,1-1.05,1h-7.88c-.7,0-1.05-.33-1.05-1V1.62c0-.71,.35-1.07,1.05-1.07h7.88c.7,0,1.05,.36,1.05,1.07V22.25Z"/><path class="f" d="M245.39,22.25h.14L262.05,.95c.23-.27,.46-.4,.7-.4h8.29c.65,0,1.09,.24,1.32,.73,.23,.49,.16,.98-.21,1.47l-17.5,21.76,18.4,23.76c.37,.49,.43,.98,.17,1.47s-.71,.73-1.36,.73h-8.36c-.19,0-.33-.02-.42-.07-.09-.04-.19-.11-.28-.2l-.14-.13-17.15-23.29h-.14v22.69c0,.67-.35,1-1.05,1h-7.88c-.7,0-1.05-.33-1.05-1V1.62c0-.71,.35-1.07,1.05-1.07h7.88c.7,0,1.05,.36,1.05,1.07V22.25Z"/></g><g><path class="l" d="M294.96,1.29c.14-.49,.47-.73,.99-.73h9.37c.47,0,.77,.24,.92,.73l16.83,47.59c.14,.45,.11,.82-.11,1.13-.21,.31-.58,.47-1.09,.47h-8.24c-.56,0-.92-.22-1.06-.67l-3.31-11.35h-17.54l-3.38,11.35c-.14,.45-.47,.67-.99,.67h-7.96c-.47,0-.81-.16-1.02-.47-.21-.31-.25-.69-.11-1.13L294.96,1.29Zm12.11,29.83l-6.55-22.16h-.14l-6.48,22.16h13.17Z"/><path class="f" d="M294.96,1.29c.14-.49,.47-.73,.99-.73h9.37c.47,0,.77,.24,.92,.73l16.83,47.59c.14,.45,.11,.82-.11,1.13-.21,.31-.58,.47-1.09,.47h-8.24c-.56,0-.92-.22-1.06-.67l-3.31-11.35h-17.54l-3.38,11.35c-.14,.45-.47,.67-.99,.67h-7.96c-.47,0-.81-.16-1.02-.47-.21-.31-.25-.69-.11-1.13L294.96,1.29Zm12.11,29.83l-6.55-22.16h-.14l-6.48,22.16h13.17Z"/></g><g><path class="l" d="M328.03,1.62c0-.71,.36-1.07,1.07-1.07h8.21c.33,0,.62,.18,.86,.53l19.77,33.44h.14V1.62c0-.71,.36-1.07,1.07-1.07h7.78c.71,0,1.07,.36,1.07,1.07V49.48c0,.67-.36,1-1.07,1h-8.28c-.33,0-.62-.16-.86-.47l-19.77-33.5h-.14V49.48c0,.67-.36,1-1.07,1h-7.71c-.71,0-1.07-.33-1.07-1V1.62Z"/><path class="f" d="M328.03,1.62c0-.71,.36-1.07,1.07-1.07h8.21c.33,0,.62,.18,.86,.53l19.77,33.44h.14V1.62c0-.71,.36-1.07,1.07-1.07h7.78c.71,0,1.07,.36,1.07,1.07V49.48c0,.67-.36,1-1.07,1h-8.28c-.33,0-.62-.16-.86-.47l-19.77-33.5h-.14V49.48c0,.67-.36,1-1.07,1h-7.71c-.71,0-1.07-.33-1.07-1V1.62Z"/></g><g><g><path class="k" d="M0,10.31c0-.9,.11-1.73,.34-2.49C1.83,2.94,5.81,.5,12.27,.5h26.26V11.24H15.72c-1.26,0-2.15,.45-2.67,1.36-.12,.48-.17,.84-.17,1.08v3.3c0,.34,.03,.57,.09,.72,.23,1.24,1.29,1.96,3.19,2.15,.17,.05,.46,.07,.86,.07h9.39c6.72,0,10.68,2.58,11.88,7.75,.17,.76,.26,1.45,.26,2.06v10.03c0,3.32-1.15,5.9-3.45,7.75-2.3,1.85-5.44,2.77-9.42,2.77H0v-10.74H22.56l.78-.21c1.49-.43,2.24-1.33,2.24-2.7v-3.56c0-1.42-.92-2.23-2.75-2.42H12.1c-4.41,0-7.78-1.47-10.13-4.41-1.32-1.66-1.97-3.44-1.97-5.33V10.31Z"/><path class="k" d="M43.85,50.28V16.32h12.87V50.28h-12.87Z"/><rect class="k" x="43.85" y=".5" width="12.87" height="15.82"/><path class="k" d="M61.64,50.28V.5h30.04c3.78,0,6.87,.88,9.27,2.63,2.4,1.75,3.6,4.17,3.6,7.25v12.23c0,2.99-1.09,5.36-3.26,7.11-2.17,1.75-5.06,2.63-8.67,2.63h-18.11v17.92h-12.87Zm25.49-28.87c1.6,0,2.69-.12,3.26-.36,.86-.38,1.29-1.16,1.29-2.35v-4.91c-.17-1.47-1.29-2.32-3.35-2.56h-13.82v10.17h12.62Z"/><path class="k" d="M116.27,50.28V.5h30.73c8.58,0,12.87,3.67,12.87,11.02v27.81c0,.43-.06,1.04-.17,1.85-.86,6.07-4.95,9.1-12.27,9.1-.23,.19-10.61,.19-31.16,0Zm26.18-10.74c1.72,0,2.86-.24,3.43-.71,.46-.33,.77-1.28,.94-2.85,.06-.19,.09-.43,.09-.71V13.51c0-1.18-1.17-1.92-3.52-2.2-.23-.05-.57-.07-1.03-.07h-13.22v28.3h13.3Z"/></g><g><path class="l" d="M0,10.31c0-.9,.11-1.73,.34-2.49C1.83,2.94,5.81,.5,12.27,.5h26.26V11.24H15.72c-1.26,0-2.15,.45-2.67,1.36-.12,.48-.17,.84-.17,1.08v3.3c0,.34,.03,.57,.09,.72,.23,1.24,1.29,1.96,3.19,2.15,.17,.05,.46,.07,.86,.07h9.39c6.72,0,10.68,2.58,11.88,7.75,.17,.76,.26,1.45,.26,2.06v10.03c0,3.32-1.15,5.9-3.45,7.75-2.3,1.85-5.44,2.77-9.42,2.77H0v-10.74H22.56l.78-.21c1.49-.43,2.24-1.33,2.24-2.7v-3.56c0-1.42-.92-2.23-2.75-2.42H12.1c-4.41,0-7.78-1.47-10.13-4.41-1.32-1.66-1.97-3.44-1.97-5.33V10.31Z"/><path class="h" d="M43.85,50.28V16.32h12.87V50.28h-12.87Z"/><rect class="i" x="43.85" y=".5" width="12.87" height="15.82"/><path class="l" d="M61.64,50.28V.5h30.04c3.78,0,6.87,.88,9.27,2.63,2.4,1.75,3.6,4.17,3.6,7.25v12.23c0,2.99-1.09,5.36-3.26,7.11-2.17,1.75-5.06,2.63-8.67,2.63h-18.11v17.92h-12.87Zm25.49-28.87c1.6,0,2.69-.12,3.26-.36,.86-.38,1.29-1.16,1.29-2.35v-4.91c-.17-1.47-1.29-2.32-3.35-2.56h-13.82v10.17h12.62Z"/><path class="i" d="M116.27,50.28V.5h30.73c8.58,0,12.87,3.67,12.87,11.02v27.81c0,.43-.06,1.04-.17,1.85-.86,6.07-4.95,9.1-12.27,9.1-.23,.19-10.61,.19-31.16,0Zm26.18-10.74c1.72,0,2.86-.24,3.43-.71,.46-.33,.77-1.28,.94-2.85,.06-.19,.09-.43,.09-.71V13.51c0-1.18-1.17-1.92-3.52-2.2-.23-.05-.57-.07-1.03-.07h-13.22v28.3h13.3Z"/></g><g><path class="e" d="M0,10.31c0-.9,.11-1.73,.34-2.49C1.83,2.94,5.81,.5,12.27,.5h26.26V11.24H15.72c-1.26,0-2.15,.45-2.67,1.36-.12,.48-.17,.84-.17,1.08v3.3c0,.34,.03,.57,.09,.72,.23,1.24,1.29,1.96,3.19,2.15,.17,.05,.46,.07,.86,.07h9.39c6.72,0,10.68,2.58,11.88,7.75,.17,.76,.26,1.45,.26,2.06v10.03c0,3.32-1.15,5.9-3.45,7.75-2.3,1.85-5.44,2.77-9.42,2.77H0v-10.74H22.56l.78-.21c1.49-.43,2.24-1.33,2.24-2.7v-3.56c0-1.42-.92-2.23-2.75-2.42H12.1c-4.41,0-7.78-1.47-10.13-4.41-1.32-1.66-1.97-3.44-1.97-5.33V10.31Z"/><path class="e" d="M43.85,50.28V16.32h12.87V50.28h-12.87Z"/><rect class="e" x="43.85" y=".5" width="12.87" height="15.82"/><path class="e" d="M61.64,50.28V.5h30.04c3.78,0,6.87,.88,9.27,2.63,2.4,1.75,3.6,4.17,3.6,7.25v12.23c0,2.99-1.09,5.36-3.26,7.11-2.17,1.75-5.06,2.63-8.67,2.63h-18.11v17.92h-12.87Zm25.49-28.87c1.6,0,2.69-.12,3.26-.36,.86-.38,1.29-1.16,1.29-2.35v-4.91c-.17-1.47-1.29-2.32-3.35-2.56h-13.82v10.17h12.62Z"/><path class="e" d="M116.27,50.28V.5h30.73c8.58,0,12.87,3.67,12.87,11.02v27.81c0,.43-.06,1.04-.17,1.85-.86,6.07-4.95,9.1-12.27,9.1-.23,.19-10.61,.19-31.16,0Zm26.18-10.74c1.72,0,2.86-.24,3.43-.71,.46-.33,.77-1.28,.94-2.85,.06-.19,.09-.43,.09-.71V13.51c0-1.18-1.17-1.92-3.52-2.2-.23-.05-.57-.07-1.03-.07h-13.22v28.3h13.3Z"/></g></g><path class="d" d="M98.9,16.42L106.8,.5h8.78l-7.92,15.96h8.78V.5h8.12V31.89h-8.12v-8.65h-10.66c-2.81,0-4.87-.64-6.17-1.93-.83-.84-1.24-1.76-1.24-2.78,0-.69,.18-1.39,.54-2.11Z"/></g><g><path class="j" d="M283.72,59.85h8.72c1.72,0,3.11,.23,4.17,.7s1.93,1.14,2.62,2.01,1.19,1.89,1.5,3.05,.47,2.38,.47,3.68c0,2.03-.23,3.61-.69,4.72s-1.1,2.06-1.92,2.81-1.7,1.26-2.64,1.51c-1.29,.35-2.45,.52-3.5,.52h-8.72v-19Zm5.87,4.3v10.38h1.44c1.23,0,2.1-.14,2.62-.41s.92-.75,1.22-1.43,.44-1.78,.44-3.3c0-2.01-.33-3.39-.98-4.13s-1.75-1.11-3.27-1.11h-1.46Z"/><path class="j" d="M304.36,78.85v-19h9.79c1.81,0,3.2,.16,4.16,.47s1.73,.89,2.32,1.73,.88,1.87,.88,3.08c0,1.05-.22,1.96-.67,2.73-.45,.76-1.07,1.38-1.85,1.86-.5,.3-1.19,.55-2.06,.75,.7,.23,1.21,.47,1.53,.7,.22,.16,.53,.49,.94,1,.41,.51,.68,.9,.82,1.18l2.84,5.51h-6.63l-3.14-5.81c-.4-.75-.75-1.24-1.06-1.46-.42-.29-.9-.44-1.44-.44h-.52v7.71h-5.9Zm5.9-11.3h2.48c.27,0,.79-.09,1.56-.26,.39-.08,.71-.28,.95-.6s.37-.69,.37-1.1c0-.61-.19-1.08-.58-1.41s-1.12-.49-2.19-.49h-2.58v3.86Z"/><path class="j" d="M325.17,59.85h5.88v19h-5.88v-19Z"/><path class="j" d="M335.26,59.85h5.87v14.32h9.16v4.68h-15.03v-19Z"/><path class="j" d="M352.97,59.85h5.87v14.32h9.16v4.68h-15.03v-19Z"/></g></g></g></svg>