<?xml version="1.0" encoding="UTF-8"?><svg id="_レイヤー_2" xmlns="http://www.w3.org/2000/svg" viewBox="0 0 465.22 66"><defs><style>.cls-1{fill:#595757;stroke-width:0px;}</style></defs><g id="_レイヤー_1-2"><path class="cls-1" d="M265.04,66c-1.61,0-3.32-.36-5.1-1.06-5.69-2.24-8.58-6.92-8.58-13.93V15.26c0-5.75,1.18-9.77,3.5-11.97C257.17,1.11,261.29,0,267.09,0h27.31l.49.49v14.02l-.49.49h-25.36c-1.51.16-2.43.96-2.76,2.44v28.37c0,2.42.31,3.41.57,3.82.54.92,1.55,1.35,3.11,1.35h24.43l.49.49v14.02l-.49.49h-29.35Z"/><path class="cls-1" d="M251.85,51.02V15.26c0-5.63,1.11-9.5,3.34-11.61,2.23-2.1,6.19-3.16,11.89-3.16h27.31v14.02h-25.36c-1.8.19-2.88,1.15-3.25,2.88v28.42c0,2.04.22,3.41.65,4.09.62,1.05,1.8,1.58,3.53,1.58h24.43v14.02h-29.35c-1.55,0-3.19-.34-4.92-1.02-5.51-2.17-8.27-6.66-8.27-13.47Z"/><polygon class="cls-1" points="335.13 66 334.89 65.94 334.22 65.56 334.05 65.41 315.22 37.49 315.22 64.55 315.1 64.88 314.26 65.83 313.89 66 302.3 66 301.93 65.83 301.09 64.88 300.97 64.55 300.97 1.45 301.09 1.12 301.93 .17 302.3 0 313.89 0 314.26 .17 315.1 1.12 315.22 1.45 315.22 27.71 334.84 .55 335 .41 335.65 .06 335.89 0 349.83 0 350.29 .3 350.93 1.87 350.88 2.34 329.18 32.39 351.12 63.67 351.17 64.15 350.51 65.7 350.06 66 335.13 66"/><polygon class="cls-1" points="335.13 66 334.46 65.63 314.73 36.37 314.73 65.04 313.89 66 302.3 66 301.46 65.04 301.46 1.94 302.3 .99 313.89 .99 314.73 1.94 314.73 29.72 335.24 1.33 335.89 .99 349.83 .99 350.48 2.55 328.57 32.87 350.71 64.45 350.06 66 335.13 66"/><path class="cls-1" d="M398.97,66l-.31-.11-.76-.61-.16-.23-4.69-14.06h-21.57l-4.62,14.06-.16.23-.76.61-.31.11h-11.77l-.43-.25-.75-1.33-.03-.41L375.28.91l.16-.22.75-.58L376.5,0h11.99l.3.1.75.58.16.22,22.99,63.1-.03.41-.75,1.33-.43.25h-12.51ZM388.42,36.94l-6.25-18.95-6.14,18.95h12.39Z"/><path class="cls-1" d="M398.97,66l-.76-.61-4.8-14.4h-22.28l-4.73,14.4-.76.61h-11.77l-.75-1.33L375.75,1.57l.75-.58h11.99l.75.58,22.99,63.1-.75,1.33h-12.51ZM389.1,37.92l-6.94-21.03-6.81,21.03h13.74Z"/><polygon class="cls-1" points="450.71 66 450.43 65.91 449.72 65.43 449.55 65.24 428.79 22.56 429.24 64.53 429.13 64.86 428.31 65.82 427.93 66 416.29 66 415.91 65.83 415.09 64.87 414.98 64.55 414.98 1.45 415.09 1.13 415.91 .17 416.29 0 430.67 0 430.95 .09 431.66 .57 431.82 .76 451.47 41.14 450.99 1.47 451.1 1.14 451.92 .18 452.3 0 463.91 0 464.28 .17 465.1 1.13 465.22 1.45 465.22 64.55 465.1 64.87 464.28 65.83 463.91 66 450.71 66"/><polygon class="cls-1" points="450.71 66 450 65.52 428.27 20.86 428.75 65.03 427.93 66 416.29 66 415.47 65.04 415.47 1.94 416.29 .99 430.67 .99 431.38 1.47 451.99 43.82 451.48 1.95 452.3 .99 463.91 .99 464.72 1.94 464.72 65.04 463.91 66 450.71 66"/><path class="cls-1" d="M0,13.01c0-1.19.13-2.29.38-3.3C2.01,3.24,6.38,0,13.48,0h28.85v14.24h-25.07c-1.39,0-2.37.6-2.93,1.81-.13.63-.19,1.11-.19,1.43v4.37c0,.44.03.76.09.95.25,1.65,1.42,2.6,3.5,2.85.19.07.5.1.95.1h10.31c7.38,0,11.73,3.43,13.05,10.28.19,1.01.28,1.92.28,2.73v13.29c0,4.4-1.27,7.83-3.79,10.28-2.53,2.45-5.98,3.68-10.35,3.68H0v-14.24h24.79l.85-.28c1.64-.57,2.46-1.76,2.46-3.58v-4.71c0-1.89-1.01-2.95-3.02-3.21h-11.79c-4.84,0-8.55-1.95-11.13-5.85-1.45-2.2-2.17-4.56-2.17-7.07v-14.05Z"/><path class="cls-1" d="M50.35,66V0h14.14v66h-14.14Z"/><path class="cls-1" d="M73.16,66V0h33C110.31,0,113.71,1.16,116.35,3.49c2.64,2.33,3.96,5.53,3.96,9.62v16.22c0,3.96-1.19,7.1-3.58,9.43-2.39,2.33-5.56,3.49-9.52,3.49h-19.89v23.76h-14.14ZM101.17,27.72c1.76,0,2.95-.16,3.58-.47.94-.5,1.41-1.54,1.41-3.11v-6.51c-.19-1.95-1.41-3.08-3.68-3.39h-15.18v13.48h13.86Z"/><path class="cls-1" d="M158.21,65.81V0h33.66C201.27,0,205.97,4.86,205.97,14.57v36.76c0,.56-.06,1.38-.19,2.45-.94,8.02-5.42,12.03-13.45,12.03-.25.25-11.63.25-34.13,0ZM186.89,51.62c1.88,0,3.13-.31,3.76-.94.5-.44.85-1.69,1.03-3.76.06-.25.09-.56.09-.94v-28.77c0-1.57-1.29-2.54-3.85-2.92-.25-.06-.63-.09-1.13-.09h-14.48v37.42h14.57Z"/><path class="cls-1" d="M124.23,21.3L132.99,0h9.73l-8.79,21.36h9.73V0h9v42h-9v-11.58h-11.82c-3.12,0-5.4-.86-6.84-2.58-.92-1.12-1.38-2.36-1.38-3.72,0-.92.2-1.86.6-2.82Z"/><path class="cls-1" d="M213.41,39.93v-11.16h29.97v11.16h-29.97Z"/></g></svg>